HIERARCHY
ROOT SpineBase
{
  OFFSET 0.000000 0.000000 0.000000
  CHANNELS 6 Xposition Yposition Zposition Zrotation Xrotation Yrotation
  JOINT SpineMid
  {
    OFFSET 0.000000 32.105430 -0.000000
    CHANNELS 3 Zrotation Xrotation Yrotation
    JOINT SpineShoulder
    {
      OFFSET -0.006198 23.755567 -0.562144
      CHANNELS 3 Zrotation Xrotation Yrotation
      JOINT Neck
      {
        OFFSET 0.101551 7.897201 -0.550632
        CHANNELS 3 Zrotation Xrotation Yrotation
        JOINT Head
        {
          OFFSET 3.523674 13.156648 4.710237
          CHANNELS 3 Zrotation Xrotation Yrotation
          End Site
          {
            OFFSET 0 0 0
          }
        }
      }
      JOINT ShoulderLeft
      {
        OFFSET -10.701874 -3.249237 -11.008758
        CHANNELS 3 Zrotation Xrotation Yrotation
        JOINT ElbowLeft
        {
          OFFSET -6.165476 -24.974224 -7.194964
          CHANNELS 3 Zrotation Xrotation Yrotation
          JOINT WristLeft
          {
            OFFSET 1.492535 -19.804339 -5.618479
            CHANNELS 3 Zrotation Xrotation Yrotation
            JOINT HandLeft
            {
              OFFSET 2.416874 -8.694190 0.371934
              CHANNELS 3 Zrotation Xrotation Yrotation
              JOINT HandTipLeft
              {
                OFFSET 1.470667 -8.069037 -0.914345
                CHANNELS 3 Zrotation Xrotation Yrotation
                End Site
                {
                  OFFSET 0 0 0
                }
              }
              JOINT ThumbLeft
              {
                OFFSET -0.607494 -3.960431 -1.849641
                CHANNELS 3 Zrotation Xrotation Yrotation
                End Site
                {
                  OFFSET 0 0 0
                }
              }
            }
          }
        }
      }
      JOINT ShoulderRight
      {
        OFFSET 12.622619 -5.464773 11.563876
        CHANNELS 3 Zrotation Xrotation Yrotation
        JOINT ElbowRight
        {
          OFFSET 3.147573 -26.831268 4.140010
          CHANNELS 3 Zrotation Xrotation Yrotation
          JOINT WristRight
          {
            OFFSET 1.704528 -23.046263 -2.713839
            CHANNELS 3 Zrotation Xrotation Yrotation
            JOINT HandRight
            {
              OFFSET 1.049577 -7.628597 -0.039330
              CHANNELS 3 Zrotation Xrotation Yrotation
              JOINT HandTipRight
              {
                OFFSET -0.339636 -8.135935 -0.516333
                CHANNELS 3 Zrotation Xrotation Yrotation
                End Site
                {
                  OFFSET 0 0 0
                }
              }
              JOINT ThumbRight
              {
                OFFSET -3.186279 0.858989 -1.008705
                CHANNELS 3 Zrotation Xrotation Yrotation
                End Site
                {
                  OFFSET 0 0 0
                }
              }
            }
          }
        }
      }
    }
  }
  JOINT HipLeft
  {
    OFFSET -5.089705 1.826533 -7.626123
    CHANNELS 3 Zrotation Xrotation Yrotation
    JOINT KneeLeft
    {
      OFFSET -10.670727 -34.701797 -7.411470
      CHANNELS 3 Zrotation Xrotation Yrotation
      JOINT AnkleLeft
      {
        OFFSET -4.672441 -38.535575 1.141650
        CHANNELS 3 Zrotation Xrotation Yrotation
        JOINT FootLeft
        {
          OFFSET 2.331170 -7.516986 -6.426634
          CHANNELS 3 Zrotation Xrotation Yrotation
          End Site
          {
            OFFSET 0 0 0
          }
        }
      }
    }
  }
  JOINT HipRight
  {
    OFFSET 5.558746 0.423746 0.746109
    CHANNELS 3 Zrotation Xrotation Yrotation
    JOINT KneeRight
    {
      OFFSET -4.809761 -38.943349 2.600049
      CHANNELS 3 Zrotation Xrotation Yrotation
      JOINT AnkleRight
      {
        OFFSET -4.370352 -36.941075 4.582913
        CHANNELS 3 Zrotation Xrotation Yrotation
        JOINT FootRight
        {
          OFFSET 3.312887 -7.151194 -6.721429
          CHANNELS 3 Zrotation Xrotation Yrotation
          End Site
          {
            OFFSET 0 0 0
          }
        }
      }
    }
  }
}
MOTION
Frames: 12
Frame Time: 0.033333
-31.833584 75.718523 340.145117 -25.012164 -37.095949 56.095482 1.263130 -0.620884 -65.321691 1.418385 1.075360 -0.648772 -15.877650 -5.160202 30.847203 0.000000 0.000000 0.000000 1.713995 -1.627840 15.801164 -41.694795 -31.103890 -11.593354 123.167690 69.383753 -82.902996 -26.064342 -42.994584 -27.885984 0.000000 0.000000 0.000000 0.000000 0.000000 0.000000 120.944132 44.674249 -65.185037 -14.397969 -24.060570 -13.783017 32.074318 35.161984 -5.878898 -41.660459 -77.880248 -1.432432 0.000000 0.000000 0.000000 0.000000 0.000000 0.000000 56.840482 9.870747 -68.407954 16.029694 -2.934865 5.345633 49.935475 47.793474 -36.948535 0.000000 0.000000 0.000000 34.189436 -18.504746 -62.712155 -1.271449 27.835515 -5.021896 11.863522 6.578461 -6.920139 0.000000 0.000000 0.000000
-31.854089 77.216044 339.303177 -23.693035 -32.884093 79.326711 0.184563 -1.334991 -87.288407 1.294600 1.120958 -0.588952 -17.463633 -9.301069 30.049976 0.000000 0.000000 0.000000 -1.917411 -6.791133 17.446419 -28.876176 -19.018524 -8.435326 65.625387 71.429309 -34.325729 -6.890554 -35.608983 -14.669321 0.000000 0.000000 0.000000 0.000000 0.000000 0.000000 109.131902 44.882433 -53.618396 4.107220 4.796082 -18.504196 16.525080 25.165359 7.040553 -49.257876 -74.192442 -14.140318 0.000000 0.000000 0.000000 0.000000 0.000000 0.000000 50.213646 -6.172952 -80.531842 18.571595 -3.602317 4.560647 54.255688 35.726110 -40.515369 0.000000 0.000000 0.000000 23.327881 -34.550396 -83.611354 -9.478303 17.370193 -2.151887 10.999863 24.988842 -4.288100 0.000000 0.000000 0.000000
-31.805455 78.365978 338.617378 -22.993761 -29.841711 140.596629 -0.797164 -0.914881 -147.553373 1.434189 1.277103 -0.601815 -17.660636 -12.614458 28.401105 0.000000 0.000000 0.000000 -4.835448 -9.411274 17.997376 -13.930912 -5.435852 -7.822546 18.311547 54.418243 -1.010569 -7.428289 -29.726904 -11.977385 0.000000 0.000000 0.000000 0.000000 0.000000 0.000000 93.541830 41.455247 -38.577511 16.155767 26.221372 -29.249992 11.596554 14.452938 14.761946 -31.338460 -48.524491 -12.455353 0.000000 0.000000 0.000000 0.000000 0.000000 0.000000 23.651874 -41.133666 -133.640134 21.492144 -6.203159 4.728089 48.132463 28.188830 -36.953538 0.000000 0.000000 0.000000 -29.447768 -34.584212 -161.189737 -15.992633 14.137896 -1.312039 12.252631 24.267233 -4.970053 0.000000 0.000000 0.000000
-30.987419 80.982068 337.526129 -21.187284 -26.183856 178.797772 -1.007869 0.020464 175.530394 1.398312 1.372599 -0.547602 -18.662617 -14.355401 26.565791 0.000000 0.000000 0.000000 -6.371814 -7.505918 16.781662 -5.481530 -0.236296 -8.063877 0.126540 34.598364 2.299181 5.713480 -18.197365 -3.476069 0.000000 0.000000 0.000000 0.000000 0.000000 0.000000 75.064700 34.559076 -23.621246 29.487008 42.562138 -41.224158 15.144303 17.628517 18.897148 -23.408122 -16.141937 -29.300847 0.000000 0.000000 0.000000 0.000000 0.000000 0.000000 -8.213963 -39.729234 177.798406 22.206839 -8.240216 4.105446 33.528635 24.250926 -26.768502 0.000000 0.000000 0.000000 -44.166878 -10.904426 167.230851 -20.540960 15.458510 -1.628890 10.935335 11.210961 -3.907603 0.000000 0.000000 0.000000
-29.588743 84.368884 336.046879 -19.221044 -22.807490 -171.766592 -0.769881 0.503909 167.203881 1.293539 1.418444 -0.482300 -19.035900 -14.252894 24.447788 0.000000 0.000000 0.000000 -6.120951 -1.334886 14.374300 0.192375 1.395044 -7.066624 -12.009590 15.076362 -1.858608 16.226013 -5.605674 1.330555 0.000000 0.000000 0.000000 0.000000 0.000000 0.000000 58.225045 25.034212 -12.797932 43.611177 51.878334 -50.483291 21.723195 35.693974 14.717272 -20.587084 -22.546072 -29.962948 0.000000 0.000000 0.000000 0.000000 0.000000 0.000000 -11.211703 -32.713724 168.900118 20.783548 -9.980803 3.120863 9.548270 18.312985 -8.644564 0.000000 0.000000 0.000000 -43.382643 -4.094767 162.597704 -22.445179 12.263395 -1.394374 7.896386 3.028298 -3.561835 0.000000 0.000000 0.000000
-27.258404 87.365707 334.929662 -15.984294 -20.380272 -154.094168 -0.168197 0.022133 150.814135 1.145363 0.978544 -0.444475 -19.014792 -12.783621 22.231032 0.000000 0.000000 0.000000 -7.369495 3.811875 12.777630 6.133597 3.335200 -6.266294 -19.284876 1.732036 -6.413444 18.772866 1.556002 3.025012 0.000000 0.000000 0.000000 0.000000 0.000000 0.000000 44.820938 15.800404 -6.811213 38.806297 50.155453 -40.428893 87.162417 56.513212 -4.603610 -54.729336 -6.567806 -61.814780 0.000000 0.000000 0.000000 0.000000 0.000000 0.000000 -14.464543 -26.767499 152.243044 19.875327 -11.839594 2.250336 3.508187 10.003838 -4.671582 0.000000 0.000000 0.000000 -38.421204 3.838305 150.093568 -20.935358 7.589440 -1.396818 3.020332 -7.080987 -3.352036 0.000000 0.000000 0.000000
-24.900612 90.180925 333.827356 -12.632425 -18.120247 -141.604446 0.046526 -0.448797 139.364482 1.117281 0.730373 -0.373908 -19.956703 -10.824149 20.308337 0.000000 0.000000 0.000000 -7.173046 10.370294 10.111983 9.294893 3.849085 -4.157004 -18.140982 1.996299 -3.342065 14.977784 -4.941901 1.161165 0.000000 0.000000 0.000000 0.000000 0.000000 0.000000 33.684612 7.498576 -3.585718 10.562133 16.231524 -10.915694 175.455204 -13.555505 -127.786568 -133.710682 -70.873985 -113.435986 0.000000 0.000000 0.000000 0.000000 0.000000 0.000000 -14.784692 -21.952236 140.772878 17.931016 -11.861953 1.367050 -3.347438 8.147246 1.622408 0.000000 0.000000 0.000000 -31.603775 7.043787 140.055756 -18.147431 4.198688 -1.255772 1.925223 -8.007293 -3.025334 0.000000 0.000000 0.000000
-23.575076 92.456076 332.301738 -10.741808 -15.765235 -129.906857 -0.015468 0.159752 128.138405 1.244110 0.871698 -0.293363 -21.970117 -8.745268 19.000724 0.000000 0.000000 0.000000 -4.148697 16.476685 6.057179 9.647360 3.892029 -1.509441 -16.633811 10.985884 3.703677 13.462065 -16.241698 -1.862867 0.000000 0.000000 0.000000 0.000000 0.000000 0.000000 26.994734 1.750154 -2.133272 -1.294185 -12.340341 -3.284943 -118.813289 -55.949543 -57.685990 -152.039542 -40.407451 -112.845837 0.000000 0.000000 0.000000 0.000000 0.000000 0.000000 -15.177450 -16.089825 129.730793 14.408241 -10.763911 0.435623 -4.310989 5.602997 3.118280 0.000000 0.000000 0.000000 -26.103477 10.790470 129.950200 -16.446754 2.060471 -1.089494 2.164093 -4.107113 -1.748244 0.000000 0.000000 0.000000
-22.749557 94.869644 331.032743 -9.443534 -14.139902 -123.194010 -0.032745 0.499630 121.732972 1.648149 0.785113 -0.268474 -23.361923 -6.399150 17.939438 0.000000 0.000000 0.000000 0.349488 22.707031 1.228270 8.379512 2.789861 1.297394 -17.127562 9.976261 4.894509 17.315866 -16.007406 -0.841626 0.000000 0.000000 0.000000 0.000000 0.000000 0.000000 23.973501 -0.306666 -1.490714 -7.873098 -18.226382 -2.167985 -72.255261 -53.523196 -26.211098 -170.631839 -36.005781 -121.255498 0.000000 0.000000 0.000000 0.000000 0.000000 0.000000 -12.830027 -11.287690 124.132312 11.057865 -7.107994 -0.956632 -3.139648 4.578211 3.325468 0.000000 0.000000 0.000000 -23.560091 12.402249 123.853327 -16.696354 -0.384135 -1.068492 2.012247 -2.370748 -0.847923 0.000000 0.000000 0.000000
-22.252920 96.675448 330.280976 -8.640810 -13.575708 -118.709360 0.032535 0.582471 117.403588 1.906338 0.691020 -0.254305 -24.352655 -3.172739 17.475689 0.000000 0.000000 0.000000 6.391172 27.693413 -4.060655 6.565558 1.472385 3.499886 -12.025162 10.663032 6.922807 11.854008 -15.995421 -2.142965 0.000000 0.000000 0.000000 0.000000 0.000000 0.000000 25.879014 1.572560 -1.288172 -14.463912 -23.993461 -2.581940 -46.911353 -44.825447 -11.733262 178.633228 -24.553810 -129.302171 0.000000 0.000000 0.000000 0.000000 0.000000 0.000000 -10.960239 -8.002506 120.369256 8.442976 -3.371962 -1.934263 -0.031860 7.034501 2.582781 0.000000 0.000000 0.000000 -22.766856 12.883331 119.545412 -17.017962 -2.501989 -1.121962 2.826805 -0.189103 -0.508358 0.000000 0.000000 0.000000
-22.170068 97.992155 329.675085 -8.523729 -12.865963 -114.085418 0.341549 0.794767 112.818358 1.783655 0.403541 -0.249681 -24.423329 -0.177373 17.205124 0.000000 0.000000 0.000000 14.206085 30.885954 -9.867890 5.149481 1.121353 5.035359 -9.574133 6.223300 7.470684 9.396976 -11.332601 -2.584546 0.000000 0.000000 0.000000 0.000000 0.000000 0.000000 25.690384 1.465126 -1.247572 -14.751474 -24.412175 -2.585592 -44.569389 -44.247795 -11.083705 176.416065 -23.451541 -129.897337 0.000000 0.000000 0.000000 0.000000 0.000000 0.000000 -8.963709 -3.683848 116.231929 5.387616 0.726438 -2.634193 0.176991 5.734081 3.311654 0.000000 0.000000 0.000000 -22.293229 14.681009 115.299946 -18.140490 -4.358502 -1.277499 2.730890 0.530407 0.251382 0.000000 0.000000 0.000000
-22.683931 98.551971 329.131417 -8.997279 -12.106619 -109.529436 1.061873 0.808371 108.218211 1.471843 0.172584 -0.271911 -24.029161 2.241420 17.311058 0.000000 0.000000 0.000000 22.840516 31.885892 -15.311933 3.291488 -0.788881 6.074112 -7.038456 6.127334 8.857660 4.448141 -11.126086 -3.950195 0.000000 0.000000 0.000000 0.000000 0.000000 0.000000 26.551985 1.669170 -1.344945 -12.647307 -22.389355 -2.561415 -52.381940 -48.892926 -15.688789 179.303366 -26.720479 -129.425689 0.000000 0.000000 0.000000 0.000000 0.000000 0.000000 -6.209155 1.097616 112.018630 2.555179 5.223439 -3.205401 -0.303033 3.839523 4.185720 0.000000 0.000000 0.000000 -21.991539 17.899910 111.350754 -20.154551 -5.465930 -1.574169 2.781549 0.507979 0.849861 0.000000 0.000000 0.000000
